<?xml version="1.0" encoding="utf-8"?>
<!-- Generator: Adobe Illustrator 24.0.3, SVG Export Plug-In . SVG Version: 6.00 Build 0)  -->
<svg version="1.1" id="Layer_1" xmlns="http://www.w3.org/2000/svg" xmlns:xlink="http://www.w3.org/1999/xlink" x="0px" y="0px"
	 viewBox="0 0 236.3 100.9" style="enable-background:new 0 0 236.3 100.9;" xml:space="preserve">
<style type="text/css">
	.st0{fill:#37A8E0;}
	.st1{fill:#2284C6;}
	.st2{fill:#1860A8;}
</style>
<g>
	<g>
		<path d="M108.4,56.9h-4.5v-3.6h-0.1c-2.3,2.9-5.4,4.4-9.1,4.4c-7.7,0-12.6-6.6-12.6-13.8c0-7.5,4.8-13.9,12.7-13.9
			c3.6,0,6.8,1.7,9,4.5h0.1v-3.8h4.5V56.9z M86.7,43.5c0,5.1,3,10,8.6,10c5.8,0,8.8-4.6,8.8-10c0-5.3-3.3-9.5-8.8-9.5
			C90.1,34,86.7,38.6,86.7,43.5z"/>
		<path d="M120.9,34.4h0.1c2.2-2.9,5.4-4.5,9.1-4.5c7.7,0,12.6,6.7,12.6,13.9c0,7.5-4.8,13.8-12.7,13.8c-3.6,0-6.9-1.6-9-4.4h-0.1
			v14.2h-4.5V30.6h4.5V34.4z M120.7,43.5c0,5.1,3,10,8.6,10c5.8,0,8.8-4.6,8.8-10c0-5.3-3.3-9.5-8.8-9.5
			C124.1,34,120.7,38.6,120.7,43.5z"/>
		<path d="M153.2,34.4h0.1c2.2-2.9,5.4-4.5,9.1-4.5c7.7,0,12.6,6.7,12.6,13.9c0,7.5-4.8,13.8-12.7,13.8c-3.6,0-6.9-1.6-9-4.4h-0.1
			v14.2h-4.5V30.6h4.5V34.4z M153,43.5c0,5.1,3,10,8.6,10c5.8,0,8.8-4.6,8.8-10c0-5.3-3.3-9.5-8.8-9.5C156.3,34,153,38.6,153,43.5z"
			/>
		<path d="M185.6,56.9h-4.5V10.7h4.5V56.9z"/>
		<path d="M189.6,30.6h5.2l9.3,18.9l8.5-18.9h5.1l-16.9,36.8h-5.1l6-12.9L189.6,30.6z"/>
	</g>
	<g>
		<g>
			<path d="M84.3,75.3h1.5l2.6,5.3l2.4-5.3h1.4l-5.4,11.5h-1.4l2.4-4.8L84.3,75.3z"/>
			<path d="M100.1,82.7h-1.3v-1h0c-0.6,0.8-1.5,1.2-2.5,1.2c-2.2,0-3.5-1.8-3.5-3.9c0-2.1,1.3-3.9,3.5-3.9c1,0,1.9,0.5,2.5,1.3h0v-1
				h1.3V82.7z M94,78.9c0,1.4,0.8,2.8,2.4,2.8c1.6,0,2.5-1.3,2.5-2.8c0-1.5-0.9-2.7-2.5-2.7C95,76.3,94,77.5,94,78.9z"/>
			<path d="M103.7,82.7h-1.3v-6.2h-0.8v-1.2h0.8v-2.6h1.3v2.6h1.3v1.2h-1.3V82.7z"/>
			<path d="M107.7,82.7h-1.3v-7.4h1.3V82.7z"/>
			<path d="M111.5,76.1L111.5,76.1c0.5-0.6,0.8-1,1.7-1c0.4,0,0.8,0.1,1.1,0.3l-0.6,1.1c-0.3-0.2-0.4-0.3-0.8-0.3
				c-1.4,0-1.4,1.8-1.4,2.7v3.7h-1.3v-7.4h1.3V76.1z"/>
			<path d="M117,82.7h-1.3v-7.4h1.3V82.7z"/>
			<path d="M120.9,76.1L120.9,76.1c0.4-0.6,1-1,1.8-1c0.9,0,1.6,0.5,2,1.2c0.4-0.8,1.3-1.2,2.2-1.2c1.9,0,2.4,1.5,2.4,3.1v4.5H128
				v-4.3c0-1-0.1-2.1-1.3-2.1c-1.4,0-1.6,1.4-1.6,2.5v3.9h-1.3v-4.2c0-0.9-0.1-2.2-1.3-2.2c-1.5,0-1.6,1.5-1.6,2.6v3.8h-1.3v-7.4
				h1.3V76.1z"/>
			<path d="M142,81.7L142,81.7c-0.6,0.8-1.6,1.2-2.6,1.2c-2.2,0-3.5-1.8-3.5-3.9c0-2.1,1.3-3.9,3.5-3.9c1,0,1.9,0.5,2.5,1.3h0v-6.6
				h1.3v12.9H142V81.7z M137.1,78.9c0,1.4,0.8,2.8,2.4,2.8c1.6,0,2.5-1.3,2.5-2.8c0-1.5-0.9-2.7-2.5-2.7
				C138.1,76.3,137.1,77.5,137.1,78.9z"/>
			<path d="M152.3,82.7H151v-1h0c-0.6,0.8-1.5,1.2-2.5,1.2c-2.2,0-3.5-1.8-3.5-3.9c0-2.1,1.3-3.9,3.5-3.9c1,0,1.9,0.5,2.5,1.3h0v-1
				h1.3V82.7z M146.2,78.9c0,1.4,0.8,2.8,2.4,2.8c1.6,0,2.5-1.3,2.5-2.8c0-1.5-0.9-2.7-2.5-2.7C147.1,76.3,146.2,77.5,146.2,78.9z"
				/>
			<path d="M155.8,76.2L155.8,76.2c0.5-0.7,1.2-1.1,2.1-1.1c2,0,2.5,1.5,2.5,3.2v4.4h-1.3v-4.2c0-1.2-0.1-2.3-1.6-2.3
				c-1.7,0-1.8,1.6-1.8,2.9v3.5h-1.3v-7.4h1.3V76.2z"/>
			<path d="M164.3,82.7h-1.3v-7.4h1.3V82.7z"/>
			<path d="M170.7,76.4c-0.3-0.2-0.8-0.4-1.6-0.4c-0.8,0-1.3,0.5-1.3,1c0,0.6,0.5,0.9,1.4,1.3c1.3,0.5,2,1.2,2,2.3
				c0,1.1-0.7,2-2,2.2l-0.4,0.7c0.6,0.1,1.1,0.5,1.1,1.1c0,0.9-0.8,1.3-1.6,1.3c-0.4,0-0.8-0.1-1.1-0.3l0.2-0.7
				c0.3,0.2,0.6,0.2,0.8,0.2c0.3,0,0.7-0.1,0.7-0.5c0-0.4-0.5-0.6-1.2-0.7l0.6-1.1c-0.8,0-1.6-0.2-2.1-0.5l0.3-1
				c0.4,0.3,1.1,0.5,1.8,0.5c1,0,1.5-0.5,1.5-1.1c0-0.7-0.4-1-1.4-1.4c-1.4-0.5-2-1.2-2-2.1c0-1.2,1-2.2,2.6-2.2
				c0.8,0,1.4,0.2,1.9,0.5L170.7,76.4z"/>
			<path d="M174.4,76.1L174.4,76.1c0.4-0.6,1-1,1.8-1c0.9,0,1.6,0.5,2,1.2c0.4-0.8,1.3-1.2,2.2-1.2c1.9,0,2.4,1.5,2.4,3.1v4.5h-1.3
				v-4.3c0-1-0.1-2.1-1.3-2.1c-1.4,0-1.6,1.4-1.6,2.5v3.9h-1.3v-4.2c0-0.9-0.1-2.2-1.3-2.2c-1.5,0-1.6,1.5-1.6,2.6v3.8h-1.3v-7.4
				h1.3V76.1z"/>
			<path d="M191.9,82.7h-1.3v-1h0c-0.6,0.8-1.5,1.2-2.5,1.2c-2.2,0-3.5-1.8-3.5-3.9c0-2.1,1.3-3.9,3.5-3.9c1,0,1.9,0.5,2.5,1.3h0v-1
				h1.3V82.7z M185.8,78.9c0,1.4,0.8,2.8,2.4,2.8c1.6,0,2.5-1.3,2.5-2.8c0-1.5-0.9-2.7-2.5-2.7C186.8,76.3,185.8,77.5,185.8,78.9z"
				/>
			<path d="M195.5,76.2L195.5,76.2c0.5-0.7,1.2-1.1,2.1-1.1c2,0,2.5,1.5,2.5,3.2v4.4h-1.3v-4.2c0-1.2-0.1-2.3-1.6-2.3
				c-1.7,0-1.8,1.6-1.8,2.9v3.5h-1.3v-7.4h1.3V76.2z"/>
			<path d="M203.7,82.7h-1.3V69.8h1.3V82.7z"/>
			<path d="M207.6,82.7h-1.3v-7.4h1.3V82.7z"/>
			<path d="M211.4,78l2.7-2.7h1.7l-3.1,3.1l3.7,4.2h-1.7l-3-3.4l-0.3,0.3v3h-1.3V69.8h1.3V78z"/>
		</g>
	</g>
	<g>
		<polygon class="st0" points="9.3,63.4 9.3,94.2 25.2,78.8 25.2,58.6 21.7,58.6 27.3,51.7 25,51.7 25,44 		"/>
		<polygon class="st1" points="28.1,51.9 46,29.6 46,39.7 48.1,39 42.7,45.5 46,45.5 46,80.1 30.1,95.3 30.1,58.7 33.7,58.7 		"/>
		<polygon class="st2" points="50.2,39.9 67.3,18.1 67.3,79.6 51.7,94.2 51.7,45.6 55.3,45.6 		"/>
	</g>
</g>
</svg>
